<?xml version="1.0" encoding="UTF-8" standalone="no"?>
<svg
   class="svg-icon"
   style="overflow:hidden;fill:currentColor"
   viewBox="0 0 1024 1024"
   version="1.1"
   id="svg24"
   sodipodi:docname="touch-lock.svg"
   width="1024"
   height="1024"
   inkscape:version="1.2.2 (732a01da63, 2022-12-09)"
   xmlns:inkscape="http://www.inkscape.org/namespaces/inkscape"
   xmlns:sodipodi="http://sodipodi.sourceforge.net/DTD/sodipodi-0.dtd"
   xmlns="http://www.w3.org/2000/svg"
   xmlns:svg="http://www.w3.org/2000/svg">
  <defs
     id="defs28" />
  <sodipodi:namedview
     id="namedview26"
     pagecolor="#ffffff"
     bordercolor="#000000"
     borderopacity="0.25"
     inkscape:showpageshadow="2"
     inkscape:pageopacity="0.0"
     inkscape:pagecheckerboard="0"
     inkscape:deskcolor="#d1d1d1"
     showgrid="false"
     inkscape:zoom="0.57797693"
     inkscape:cx="530.29798"
     inkscape:cy="520.78203"
     inkscape:window-width="1920"
     inkscape:window-height="1017"
     inkscape:window-x="-8"
     inkscape:window-y="-8"
     inkscape:window-maximized="1"
     inkscape:current-layer="svg24" />
  <path
     d="M 993.57476,993.32702 H 660.28877 c -9.99858,0 -16.66431,-6.86358 -16.66431,-17.15895 V 701.62498 c 0,-10.29536 6.66573,-17.15893 16.66431,-17.15893 h 333.28599 c 9.99864,0 16.66434,6.86357 16.66434,17.15893 v 274.54309 c 0,10.29537 -6.6657,17.15895 -16.66434,17.15895 z M 676.95308,959.00912 H 976.91049 V 718.78393 H 676.95308 Z"
     fill=""
     id="path16"
     style="stroke-width:0.99081" />
  <path
     d="m 826.93179,890.37336 c -9.99859,0 -16.66431,-6.86358 -16.66431,-17.15895 v -51.47683 c 0,-10.29536 6.66572,-17.15893 16.66431,-17.15893 9.99857,0 16.66428,6.86357 16.66428,17.15893 v 51.47683 c 0,10.29537 -6.66571,17.15895 -16.66428,17.15895 z m -636.5763,34.31789 c -23.33002,0 -46.66005,-13.72716 -56.65863,-41.18147 -19.99716,-54.90861 3.33286,-116.6808 53.32577,-140.70334 L 393.65995,626.12565 37.043919,265.78784 C 20.379618,248.62891 10.381037,224.60638 10.381037,200.58387 c 0,-24.02253 9.998581,-48.04504 26.662882,-65.20399 29.995742,-30.8861 86.654361,-41.181458 149.978711,20.59073 l 76.65578,78.93114 c 3.33286,-20.59073 13.33145,-41.18146 29.99573,-58.34041 36.66147,-37.74966 93.3201,-37.74966 129.98155,0 l 3.33287,3.4318 c 3.33286,-20.59073 9.99858,-41.18146 26.66288,-58.34041 33.3286,-34.317884 86.65437,-34.317884 123.31583,-6.86358 3.33285,-20.590728 9.99858,-41.181458 26.66287,-58.340401 36.66147,-37.749673 93.3201,-37.749673 129.98155,0 L 933.5833,258.92427 c 49.99291,51.47683 79.9886,120.1126 79.9886,195.61194 0,24.02253 -3.3328,48.04504 -9.9985,72.06757 -3.3328,10.29536 -13.33147,13.72715 -19.99719,10.29536 -9.99859,-3.43179 -13.33144,-10.29536 -9.99859,-20.59073 6.66572,-20.59073 9.99859,-41.18147 9.99859,-65.20398 0,-65.20399 -23.33002,-123.54438 -69.99007,-171.58943 L 713.61453,77.03948 c -23.33002,-24.022519 -59.99148,-24.022519 -83.3215,0 -9.99858,10.295366 -16.6643,27.4543 -16.6643,41.18147 0,13.72715 6.66572,30.8861 16.6643,41.18146 l 13.33143,27.45429 c 6.66573,6.86359 6.66573,17.15895 0,24.02254 -6.66571,6.86357 -16.66428,6.86357 -23.33001,0 l -63.32434,-65.204 c -23.33003,-24.02251 -59.99148,-24.02251 -83.32151,0 -9.99858,10.29537 -16.66429,27.45432 -16.66429,41.18146 0,13.72717 6.66571,30.88611 16.66429,41.18148 l 49.9929,65.20398 c 6.66572,6.86357 3.33287,17.15894 -3.33285,24.02252 -6.66573,6.86357 -16.66431,3.43178 -23.33002,-3.43179 L 396.99282,197.15207 c -23.33003,-20.59073 -59.99149,-20.59073 -83.32151,0 -9.99858,17.15895 -13.33144,30.88611 -13.33144,44.61326 0,13.72715 3.33286,30.8861 16.66431,44.61324 L 440.32,416.78655 c 6.66572,6.86356 6.66572,17.15893 0,24.02251 -6.66572,6.86359 -16.66431,6.86359 -23.33002,0 L 163.69261,179.99314 C 127.03115,142.24346 87.036821,131.9481 60.37394,159.40241 c -9.998581,10.29537 -16.664302,24.02251 -16.664302,41.18146 0,17.15894 6.665721,30.8861 16.664302,41.18146 l 369.94748,374.06495 c 3.33286,3.43178 6.66572,10.29537 3.33286,13.72715 -3.33286,3.43179 -3.33286,10.29536 -9.99859,13.72715 L 200.35406,773.69254 c -36.66145,20.59074 -53.32575,61.7722 -39.99432,99.52187 3.33287,13.72716 19.99716,20.59074 33.3286,13.72716 L 523.6415,783.98791 c 13.33144,-3.43179 23.33003,-6.86357 36.66147,-10.29537 9.99858,-3.43178 16.6643,3.4318 19.99715,13.72717 3.33287,10.29536 -3.33285,17.15894 -13.33143,20.59073 -13.33145,3.43178 -23.33003,6.86357 -33.32861,10.29536 L 203.68692,921.25945 c 0,3.4318 -6.66571,3.4318 -13.33143,3.4318 z"
     fill=""
     id="path18"
     style="stroke-width:0.99081" />
  <path
     d="m 826.93179,804.57865 m -33.32862,0 a 33.328605,34.317889 0 1 0 66.65721,0 33.328605,34.317889 0 1 0 -66.65721,0 z"
     fill=""
     id="path20"
     style="stroke-width:0.99081" />
  <path
     d="m 960.24619,718.78393 c -9.99858,0 -16.66431,-6.86358 -16.66431,-17.15895 v -34.31787 c 0,-65.20399 -53.32576,-120.1126 -116.65009,-120.1126 -63.32435,0 -116.65012,54.90861 -116.65012,120.1126 v 34.31787 c 0,10.29537 -6.66572,17.15895 -16.6643,17.15895 -9.99858,0 -16.66429,-6.86358 -16.66429,-17.15895 v -34.31787 c 0,-85.79472 66.65719,-154.43049 149.97871,-154.43049 83.32149,0 149.9787,68.63577 149.9787,154.43049 v 34.31787 c 0,10.29537 -6.66572,17.15895 -16.6643,17.15895 z"
     fill=""
     id="path22"
     style="stroke-width:0.99081" />
</svg>
